<?xml version="1.0" standalone="no"?>
<!DOCTYPE svg PUBLIC "-//W3C//DTD SVG 20010904//EN"
 "http://www.w3.org/TR/2001/REC-SVG-20010904/DTD/svg10.dtd">
<svg version="1.0" xmlns="http://www.w3.org/2000/svg"
 width="700.000000pt" height="700.000000pt" viewBox="0 0 700.000000 700.000000"
 preserveAspectRatio="xMidYMid meet">
<metadata>
Created by potrace 1.11, written by Peter Selinger 2001-2013
</metadata>
<g transform="translate(0.000000,700.000000) scale(0.100000,-0.100000)"
fill="#000000" stroke="none">
<path d="M2567 6523 c-1 0 -22 -3 -47 -6 -208 -23 -437 -183 -533 -372 -14
-28 -64 -156 -113 -285 -48 -129 -91 -239 -96 -245 -6 -6 -167 -10 -441 -11
-394 -1 -459 -3 -552 -19 -128 -23 -303 -108 -400 -196 -16 -15 -39 -36 -50
-46 -32 -28 -118 -134 -147 -179 -47 -74 -101 -208 -113 -284 -4 -25 -10 -54
-12 -65 -9 -34 -9 -3375 -1 -3455 26 -244 155 -468 361 -627 107 -83 263 -152
387 -171 61 -9 5311 -9 5377 0 240 35 482 201 631 433 41 66 99 212 109 278 2
18 7 43 10 57 3 14 7 792 8 1729 2 1838 3 1780 -50 1934 -96 275 -352 510
-630 580 -105 27 -171 30 -608 31 -384 1 -429 3 -437 17 -5 9 -23 54 -40 100
-17 46 -34 93 -39 104 -5 11 -14 36 -21 55 -7 19 -19 49 -26 67 -8 17 -14 34
-14 38 0 18 -76 184 -100 220 -109 161 -312 289 -492 311 -43 6 -1916 13
-1921 7z m1085 -1848 c72 -6 153 -17 203 -29 11 -2 40 -9 65 -15 115 -26 280
-97 403 -173 152 -93 247 -174 403 -343 39 -43 124 -160 167 -230 69 -116 156
-331 170 -422 3 -17 7 -35 10 -40 3 -4 8 -30 11 -58 4 -27 11 -77 15 -110 11
-81 6 -333 -8 -420 -7 -38 -14 -83 -17 -100 -22 -129 -103 -338 -185 -472
-108 -179 -282 -367 -459 -499 -196 -144 -420 -235 -685 -277 -99 -16 -372
-20 -450 -7 -28 5 -66 11 -85 13 -19 3 -71 14 -115 25 -282 74 -508 205 -726
422 -309 308 -463 663 -473 1095 -8 313 61 588 212 845 125 213 336 431 547
565 160 102 381 187 545 211 19 3 40 7 47 9 7 2 52 7 100 11 48 4 89 7 90 8 4
3 141 -2 215 -9z"/>
<path d="M3389 4106 c-2 -2 -26 -6 -54 -10 -289 -34 -595 -253 -748 -536 -52
-95 -88 -200 -102 -295 -4 -22 -8 -51 -11 -65 -5 -32 -6 -249 0 -258 2 -4 7
-29 10 -57 9 -61 57 -207 90 -272 70 -137 225 -311 352 -395 135 -90 281 -146
421 -164 72 -10 229 -10 304 -1 152 19 329 93 465 195 229 173 368 406 409
687 7 47 8 272 2 283 -3 4 -8 28 -11 55 -4 26 -11 58 -16 72 -5 14 -8 25 -5
25 7 0 -55 143 -90 206 -99 181 -286 355 -476 443 -58 27 -162 60 -244 76 -35
8 -289 17 -296 11z"/>
</g>
</svg>
